<svg xmlns="http://www.w3.org/2000/svg" width="257.52" height="65.689" viewBox="0 0 257.52 65.689">
  <path id="Union_2" data-name="Union 2" d="M121.45,81.581a4.907,4.907,0,0,1-2.156-1.1l.418-.689a3.142,3.142,0,0,0,.549.454,4.414,4.414,0,0,0,.708.374,4.494,4.494,0,0,0,.839.257,4.567,4.567,0,0,0,.929.094,2.9,2.9,0,0,0,1.591-.374,1.232,1.232,0,0,0,.572-1.1,1.209,1.209,0,0,0-.287-.844,2.1,2.1,0,0,0-.862-.526,12.274,12.274,0,0,0-1.424-.4,10.11,10.11,0,0,1-1.494-.453,2.075,2.075,0,0,1-.917-.662,1.79,1.79,0,0,1-.309-1.1,2.267,2.267,0,0,1,.388-1.343,2.374,2.374,0,0,1,1.076-.829,4.137,4.137,0,0,1,1.572-.281,4.546,4.546,0,0,1,1.049.114,3.837,3.837,0,0,1,.9.333,3.669,3.669,0,0,1,.769.538l-.4.668a2.148,2.148,0,0,0-.421-.365,3.01,3.01,0,0,0-.54-.285,3.522,3.522,0,0,0-.638-.19,3.693,3.693,0,0,0-.727-.069,2.584,2.584,0,0,0-1.644.427,1.413,1.413,0,0,0-.523,1.157,1.175,1.175,0,0,0,.25.792,1.756,1.756,0,0,0,.777.471,12.991,12.991,0,0,0,1.347.365,9.427,9.427,0,0,1,1.568.459,2.421,2.421,0,0,1,1.02.718,1.911,1.911,0,0,1,.356,1.216,2.189,2.189,0,0,1-.225,1.02,1.979,1.979,0,0,1-.636.723,2.894,2.894,0,0,1-.974.427,5.082,5.082,0,0,1-1.233.14A5.6,5.6,0,0,1,121.45,81.581Zm-45.982-.243A4.133,4.133,0,0,1,74.2,80.33a4.736,4.736,0,0,1-.826-1.416,4.541,4.541,0,0,1-.292-1.59,4.51,4.51,0,0,1,1.06-2.894,3.79,3.79,0,0,1,2.985-1.354,3.517,3.517,0,0,1,1.949.522,3.259,3.259,0,0,1,1.2,1.338l-.669.41a2.55,2.55,0,0,0-.689-.9,2.6,2.6,0,0,0-.9-.475,3.341,3.341,0,0,0-.945-.14,2.9,2.9,0,0,0-1.351.305,3.019,3.019,0,0,0-.994.818,3.628,3.628,0,0,0-.607,1.141,4.1,4.1,0,0,0-.2,1.272,3.853,3.853,0,0,0,.241,1.354,3.736,3.736,0,0,0,.673,1.149,3.268,3.268,0,0,0,1.013.793,2.763,2.763,0,0,0,1.264.294,3.106,3.106,0,0,0,.983-.167,3.05,3.05,0,0,0,.943-.516,2.52,2.52,0,0,0,.7-.905l.7.365a2.759,2.759,0,0,1-.824,1.08,3.969,3.969,0,0,1-1.227.672,4.13,4.13,0,0,1-1.33.228A3.433,3.433,0,0,1,75.468,81.338Zm66.2,0a4.124,4.124,0,0,1-1.268-.987,4.689,4.689,0,0,1-.836-1.392,4.375,4.375,0,0,1-.3-1.589,4.538,4.538,0,0,1,.294-1.627,4.472,4.472,0,0,1,.825-1.378,3.9,3.9,0,0,1,1.251-.95,3.565,3.565,0,0,1,1.572-.347,3.693,3.693,0,0,1,2.053.517,3.373,3.373,0,0,1,1.2,1.342l-.652.428a2.633,2.633,0,0,0-1.089-1.161,3.162,3.162,0,0,0-1.528-.371,2.722,2.722,0,0,0-1.275.3,3.038,3.038,0,0,0-.977.8,3.69,3.69,0,0,0-.62,1.145,4.09,4.09,0,0,0-.214,1.317,3.825,3.825,0,0,0,.243,1.363,3.666,3.666,0,0,0,.683,1.139,3.276,3.276,0,0,0,1.022.778,2.831,2.831,0,0,0,1.256.284,2.989,2.989,0,0,0,1.477-.388,4.279,4.279,0,0,0,1.2-1.036V78.1H144.1v-.646h2.6v4.191h-.715V80.4a3.57,3.57,0,0,1-2.732,1.306A3.461,3.461,0,0,1,141.667,81.337ZM2.9,81.337a4.114,4.114,0,0,1-1.268-.987A4.67,4.67,0,0,1,.8,78.957a4.376,4.376,0,0,1-.3-1.589,4.539,4.539,0,0,1,.3-1.627,4.472,4.472,0,0,1,.825-1.378,3.894,3.894,0,0,1,1.251-.95,3.565,3.565,0,0,1,1.572-.347,3.7,3.7,0,0,1,2.053.517,3.379,3.379,0,0,1,1.2,1.342l-.652.428a2.638,2.638,0,0,0-1.089-1.161,3.165,3.165,0,0,0-1.528-.371,2.719,2.719,0,0,0-1.275.3,3.028,3.028,0,0,0-.977.8,3.69,3.69,0,0,0-.62,1.145,4.09,4.09,0,0,0-.214,1.317,3.825,3.825,0,0,0,.243,1.363,3.632,3.632,0,0,0,.683,1.139,3.266,3.266,0,0,0,1.022.778,2.828,2.828,0,0,0,1.256.284,2.994,2.994,0,0,0,1.477-.388,4.285,4.285,0,0,0,1.2-1.036V78.1H5.333v-.646h2.6v4.191H7.219V80.4A3.572,3.572,0,0,1,4.486,81.7,3.46,3.46,0,0,1,2.9,81.337Zm181.849.308L182.744,78.5H180.22v3.145h-.833v-8.52h3.595a2.228,2.228,0,0,1,1.013.231,2.621,2.621,0,0,1,.8.615,2.917,2.917,0,0,1,.527.862,2.62,2.62,0,0,1,.188.974,2.823,2.823,0,0,1-.238,1.149,2.541,2.541,0,0,1-.665.913,2.132,2.132,0,0,1-1,.488l2.092,3.289Zm-4.532-3.893h2.8a1.422,1.422,0,0,0,.873-.274,1.833,1.833,0,0,0,.574-.721,2.251,2.251,0,0,0,.206-.95,1.989,1.989,0,0,0-.238-.959,1.967,1.967,0,0,0-.627-.707,1.494,1.494,0,0,0-.864-.266h-2.72Zm-12.935,3.893v-8.52h5.62v.749h-4.787V76.94h4.172v.706h-4.172V80.9h4.9v.748Zm-7.715,0-5.513-6.977v6.977h-.833v-8.52h.7l5.594,7.105v-7.1h.833v8.511Zm-27.508,0v-8.52h.833v8.52Zm-24.133,0v-8.52h5.62v.749h-4.787V76.94h4.173v.706h-4.173V80.9h4.9v.748Zm-13.374,0v-8.52h2.888a4.2,4.2,0,0,1,2.269.571,3.57,3.57,0,0,1,1.36,1.535,4.991,4.991,0,0,1,.452,2.142,4.825,4.825,0,0,1-.5,2.256,3.584,3.584,0,0,1-1.416,1.488,4.257,4.257,0,0,1-2.166.528Zm.833-.748h2.056a3.217,3.217,0,0,0,1.778-.464,2.937,2.937,0,0,0,1.09-1.264,4.212,4.212,0,0,0,.372-1.8,4.159,4.159,0,0,0-.379-1.812,2.906,2.906,0,0,0-1.1-1.239,3.269,3.269,0,0,0-1.762-.448H95.388Zm-29.506.748v-8.52h.833v8.52Zm-7.771,0V77.663H53.059v3.982h-.833v-8.52h.833v3.791h5.053V73.124h.833v8.52Zm-18.147,0v-8.52h3.527a2.221,2.221,0,0,1,1.013.231,2.61,2.61,0,0,1,.8.615,2.9,2.9,0,0,1,.527.862,2.621,2.621,0,0,1,.189.974,2.906,2.906,0,0,1-.307,1.305,2.615,2.615,0,0,1-.857,1,2.189,2.189,0,0,1-1.288.385H40.8v3.145Zm.833-3.893h2.728a1.443,1.443,0,0,0,.875-.272,1.805,1.805,0,0,0,.574-.719,2.271,2.271,0,0,0,.2-.955,2.023,2.023,0,0,0-.238-.976,1.9,1.9,0,0,0-.627-.7,1.533,1.533,0,0,0-.863-.257H40.8Zm-7.744,3.893-1.1-2.659H28.115l-1.094,2.659H26.13l3.56-8.52H30.4l3.547,8.52ZM28.3,78.323h3.451l-1.706-4.215Zm-8.473,3.322L17.816,78.5H15.291v3.145h-.833v-8.52h3.6a2.221,2.221,0,0,1,1.012.231,2.621,2.621,0,0,1,.8.615,2.917,2.917,0,0,1,.527.862,2.621,2.621,0,0,1,.189.974,2.824,2.824,0,0,1-.238,1.149,2.55,2.55,0,0,1-.664.913,2.14,2.14,0,0,1-1,.488l2.093,3.289Zm-4.532-3.893h2.8a1.422,1.422,0,0,0,.873-.274,1.825,1.825,0,0,0,.574-.721,2.238,2.238,0,0,0,.206-.95,1.989,1.989,0,0,0-.238-.959,1.967,1.967,0,0,0-.627-.707,1.494,1.494,0,0,0-.863-.266H15.291ZM212.91,62.24q-4.651-3.6-4.65-10.14a26.444,26.444,0,0,1,1.41-8.34,34.071,34.071,0,0,1,10.5-15.3,30.388,30.388,0,0,1,8.43-4.95,27.612,27.612,0,0,1,10.14-1.83,12.975,12.975,0,0,1,6.03,1.14,17.025,17.025,0,0,1,3.81,2.759q.9.9,1.68.3A8.12,8.12,0,0,0,252,22.52h1.32q-.9,2.341-1.86,5.67t-1.98,8.131h-1.32q.12-1.2.211-2.31t.09-2.19a15.779,15.779,0,0,0-.15-2.281,6.979,6.979,0,0,0-.69-2.1,7.742,7.742,0,0,0-3.45-3.48,12.483,12.483,0,0,0-5.79-1.2,10.325,10.325,0,0,0-6.331,2.13,20.41,20.41,0,0,0-5.04,5.639,37.717,37.717,0,0,0-3.63,7.681,55.649,55.649,0,0,0-2.19,8.339,42.9,42.9,0,0,0-.751,7.53q0,5.4,1.86,7.98a6.366,6.366,0,0,0,5.52,2.579,7.686,7.686,0,0,0,1.62-.18,3.911,3.911,0,0,0,1.5-.66,3.848,3.848,0,0,0,1.32-1.71A28.634,28.634,0,0,0,233.22,59l1.381-5.28a10.579,10.579,0,0,0,.509-3.66,1.861,1.861,0,0,0-1.319-1.62,12.709,12.709,0,0,0-3.69-.48l.3-1.2q1.38.059,3.36.09l4.11.059q2.13.03,3.93.031,3.059,0,5.67-.06t4.23-.12l-.3,1.2a5.443,5.443,0,0,0-2.07.42,2.852,2.852,0,0,0-1.26,1.44,21.317,21.317,0,0,0-1.11,3.3L243.78,65h-1.2a4.184,4.184,0,0,0-.54-2.669,2.165,2.165,0,0,0-1.8-.751,7.75,7.75,0,0,0-3.51.931q-1.829.929-3.389,1.589a18.34,18.34,0,0,1-4.05,1.381,18.821,18.821,0,0,1-3.631.36Q217.56,65.84,212.91,62.24Zm-21.96,1.5a6.2,6.2,0,0,1-1.471-5.7l1.14-6.84a8.731,8.731,0,0,0,0-3.54,3.588,3.588,0,0,0-1.86-2.34A8.649,8.649,0,0,0,185,44.5L181.26,58.64a17.35,17.35,0,0,0-.57,2.88,1.6,1.6,0,0,0,.81,1.62,7.6,7.6,0,0,0,3.24.66L184.5,65q-2.04-.12-4.77-.149t-5.91-.031q-3.179,0-6.269.031T162.66,65l.24-1.2a13.752,13.752,0,0,0,3.18-.48,3.189,3.189,0,0,0,1.8-1.44,12.056,12.056,0,0,0,1.2-3.24l7.86-29.76a13.285,13.285,0,0,0,.51-2.88,1.72,1.72,0,0,0-.841-1.62,7.18,7.18,0,0,0-3.15-.66l.3-1.2q1.2.061,3,.09t3.75.06q1.949.03,3.45.03,3.181,0,5.25-.059t3.93-.06q8.159,0,12.03,1.86a6.553,6.553,0,0,1,3.87,6.42,9.869,9.869,0,0,1-2.97,7.2,19.367,19.367,0,0,1-8.28,4.62,37.538,37.538,0,0,1-7.73,1.428q2.184.167,4.189.432a18.226,18.226,0,0,1,4.77,1.23,5.51,5.51,0,0,1,3.541,6.69L201.54,58.7a4.761,4.761,0,0,0,.18,2.85,1.7,1.7,0,0,0,1.62.87,2.818,2.818,0,0,0,2.16-.99,8.4,8.4,0,0,0,1.561-2.85l.3-.84h1.38l-.239.779a10.024,10.024,0,0,1-3.66,5.55A11.71,11.71,0,0,1,198,65.84Q193.02,65.84,190.95,63.74Zm-.09-39.389a5.016,5.016,0,0,0-1.2,2.489l-4.387,16.609a11.908,11.908,0,0,0,3.7-.8,12.318,12.318,0,0,0,3.96-2.49,12.147,12.147,0,0,0,2.939-4.32,16.014,16.014,0,0,0,1.111-6.24,7.229,7.229,0,0,0-1.111-4.47,3.711,3.711,0,0,0-3.09-1.409A2.809,2.809,0,0,0,190.86,24.35ZM153.39,65.18a4.949,4.949,0,0,1-2.19-1.949,6.509,6.509,0,0,1-.84-3.21,14.286,14.286,0,0,1,.72-4.5l9.18-30.54q.6-2.041-.121-3t-3.659-.959l.419-1.26a58.363,58.363,0,0,0,8.73-.69,51.133,51.133,0,0,0,7.35-1.77L160.32,59.9q-.42,1.439,0,1.98a1.207,1.207,0,0,0,.96.54,3.171,3.171,0,0,0,1.2-.571q.9-.57,1.86-3.209l1.26-3.361h1.14l-1.5,4.38a9.2,9.2,0,0,1-2.37,3.9,8.06,8.06,0,0,1-3.091,1.8,10.773,10.773,0,0,1-3.06.481A7.79,7.79,0,0,1,153.39,65.18Zm-24.359-.3a8.642,8.642,0,0,1-3.78-2.85,7.081,7.081,0,0,1-1.323-3.327l-.328.958a9.086,9.086,0,0,1-2.25,3.84,7.865,7.865,0,0,1-3.06,1.83,11.019,11.019,0,0,1-3.27.51q-3.66,0-5.22-2.1a6.026,6.026,0,0,1-.99-3.3,10.412,10.412,0,0,1,.036-1.379,12.91,12.91,0,0,1-1.9,3.449,8.3,8.3,0,0,1-3.3,2.579,10.256,10.256,0,0,1-3.93.751q-3.78,0-5.61-1.95a7.163,7.163,0,0,1-1.778-4.382l-.052.152a9.086,9.086,0,0,1-2.25,3.84,7.865,7.865,0,0,1-3.06,1.83,11.019,11.019,0,0,1-3.27.51,8.285,8.285,0,0,1-3.39-.63,4.825,4.825,0,0,1-2.19-1.89,6.011,6.011,0,0,1-.78-3.21,14.564,14.564,0,0,1,.9-4.59L83.4,39.98a6.148,6.148,0,0,0,.45-2.01c-.021-.42-.19-.63-.51-.63a3.219,3.219,0,0,0-1.89.93,14.176,14.176,0,0,0-2.52,3.12,39.876,39.876,0,0,0-3,5.97q-1.544,3.669-3.285,9.149L70.2,65H59.52l7.2-25.02q.24-.84.391-1.44a1.821,1.821,0,0,0,.059-.9q-.089-.3-.57-.3a3.453,3.453,0,0,0-2.4,1.38,20.1,20.1,0,0,0-2.64,3.93,55.88,55.88,0,0,0-2.79,6.15q-1.253,3.2-2.532,7.114L53.88,65H43.26l7.32-26.04a4.572,4.572,0,0,0,.27-1.5,1.279,1.279,0,0,0-.24-.779.872.872,0,0,0-.689-.24,2.2,2.2,0,0,0-1.62.87,9.685,9.685,0,0,0-1.561,2.91l-.26.689a7.394,7.394,0,0,1-.4,1.471,5.543,5.543,0,0,1-.58,1.128l-.14.373h-.137a4.764,4.764,0,0,1-.553.57,3.477,3.477,0,0,1-2.37.81,3.286,3.286,0,0,1-2.82-1.41,6.04,6.04,0,0,1-1.021-3.63,8.774,8.774,0,0,1,.63-3.42,7.83,7.83,0,0,1,1.291-2.22,3.527,3.527,0,0,0-1.5-.239,3.963,3.963,0,0,0-3.15,1.2,5.355,5.355,0,0,0-1.11,3.48,7.531,7.531,0,0,0,.509,2.669,15.492,15.492,0,0,0,1.35,2.7q.841,1.35,1.68,2.79a38.379,38.379,0,0,1,2.79,5.49,11.686,11.686,0,0,1,.81,4.171,7.985,7.985,0,0,1-1.35,4.5,9.348,9.348,0,0,1-4.02,3.27,15.823,15.823,0,0,1-6.629,1.23,20.481,20.481,0,0,1-5.37-.69,8.675,8.675,0,0,1-4.14-2.37,6.451,6.451,0,0,1-1.59-4.621,6.347,6.347,0,0,1,1.111-3.78,3.469,3.469,0,0,1,2.97-1.56,3.364,3.364,0,0,1,2.82,1.44,6.249,6.249,0,0,1,1.08,3.84,9.678,9.678,0,0,1-.63,3.54q-.63,1.62-1.05,2.52a3.622,3.622,0,0,0,.99.33,6.461,6.461,0,0,0,1.111.09,4.191,4.191,0,0,0,3.09-1.23,4.5,4.5,0,0,0,1.23-3.33,10.722,10.722,0,0,0-.96-4.26,33.964,33.964,0,0,0-2.52-4.68q-1.44-2.341-2.52-4.41a9.775,9.775,0,0,1-1.08-4.59,8.317,8.317,0,0,1,1.32-4.621,8.97,8.97,0,0,1,3.96-3.24,16.123,16.123,0,0,1,6.66-1.2,19.827,19.827,0,0,1,4.89.6,8.511,8.511,0,0,1,3.9,2.07A4.8,4.8,0,0,1,46.361,38.1a9.151,9.151,0,0,1,1.7-2.526,7.858,7.858,0,0,1,3-1.949,10.263,10.263,0,0,1,3.48-.6,7.054,7.054,0,0,1,3.48.72,4.3,4.3,0,0,1,1.83,1.95,6.121,6.121,0,0,1,.54,2.73,14.046,14.046,0,0,1-.39,3l-.743,2.864q.327-.773.653-1.483a19.686,19.686,0,0,1,5.34-7.47,11.049,11.049,0,0,1,6.99-2.31,6.669,6.669,0,0,1,3.15.63,3.666,3.666,0,0,1,1.679,1.8,6.258,6.258,0,0,1,.42,2.85,17.3,17.3,0,0,1-.69,3.78l-.312,1.085A27.124,27.124,0,0,1,79.83,37.55a11.9,11.9,0,0,1,4.32-3.54,11.576,11.576,0,0,1,4.71-.99,6.034,6.034,0,0,1,3.96,1.11,4.2,4.2,0,0,1,1.44,3.12,12.976,12.976,0,0,1-.84,4.83L87.48,59.9q-.6,1.679-.15,2.1a1.312,1.312,0,0,0,.87.42,2.549,2.549,0,0,0,1.38-.63,7.576,7.576,0,0,0,1.8-3.15l1.049-2.8A23.939,23.939,0,0,1,93.45,51.26,31.924,31.924,0,0,1,96.63,44.39a33.041,33.041,0,0,1,4.5-5.819,22.716,22.716,0,0,1,5.189-4.05,10.734,10.734,0,0,1,5.22-1.5,3.734,3.734,0,0,1,2.97,1.2,3.794,3.794,0,0,1,.782,2.192l.748-2.492q3.3-.061,5.85-.27t5.01-.63L118.8,59.9a4.638,4.638,0,0,0-.27,1.53,1.01,1.01,0,0,0,.3.779,1.09,1.09,0,0,0,.69.211,2.549,2.549,0,0,0,1.38-.63,7.576,7.576,0,0,0,1.8-3.15l1.232-3.285a23.289,23.289,0,0,1,1.018-5,27.044,27.044,0,0,1,3.15-6.6,25.849,25.849,0,0,1,4.891-5.549,22.433,22.433,0,0,1,6.33-3.811,20,20,0,0,1,7.44-1.38,10.1,10.1,0,0,1,5.31,1.29A4.34,4.34,0,0,1,154.2,38.3,8.229,8.229,0,0,1,153,42.59a13.443,13.443,0,0,1-3.3,3.66,27.7,27.7,0,0,1-4.739,2.97,41.338,41.338,0,0,1-5.55,2.28q-2.1.692-4.15,1.166a23.665,23.665,0,0,0-.2,3.034q0,3.48,1.38,4.65a5.379,5.379,0,0,0,3.6,1.17,11.513,11.513,0,0,0,3.6-.9,13.8,13.8,0,0,0,4.8-3.3l.96.48a19.155,19.155,0,0,1-3.48,3.84,17.609,17.609,0,0,1-11.7,4.2A13.694,13.694,0,0,1,129.03,64.88ZM111.27,37.25a18.478,18.478,0,0,0-2.64,3.54,36.548,36.548,0,0,0-2.52,5.161,37.2,37.2,0,0,0-1.86,6.15,31.037,31.037,0,0,0-.689,6.48,7.107,7.107,0,0,0,.3,2.43,1.083,1.083,0,0,0,1.08.75,2.171,2.171,0,0,0,1.26-.48,5.788,5.788,0,0,0,1.38-1.65,22.175,22.175,0,0,0,1.561-3.271q.516-1.289,1.077-3.031l4.44-14.8a3.5,3.5,0,0,0-.058-1.879,1.04,1.04,0,0,0-1.02-.689A3.554,3.554,0,0,0,111.27,37.25Zm31.56-1.74a18,18,0,0,0-2.79,3.6,32.386,32.386,0,0,0-2.49,5.07,41.323,41.323,0,0,0-1.8,5.79q-.183.788-.317,1.561,1.053-.589,2.088-1.291a25.778,25.778,0,0,0,3.42-2.759,20.292,20.292,0,0,0,3.93-5.341,14.061,14.061,0,0,0,1.53-6.48,2.082,2.082,0,0,0-.24-1.17.833.833,0,0,0-.72-.329A3.984,3.984,0,0,0,142.83,35.51ZM14.04,64.85q-3.06-.031-6.24-.031-3.24,0-6.055.031T-2.82,65l.3-1.2a13.04,13.04,0,0,0,3.09-.48,3.194,3.194,0,0,0,1.77-1.44,12.06,12.06,0,0,0,1.2-3.24l7.92-29.76a9.765,9.765,0,0,0,.481-3.27,1.651,1.651,0,0,0-1.05-1.44,8.934,8.934,0,0,0-2.97-.45l.3-1.2q1.673.061,4.516.121t6.1.059q3.181,0,6.12-.059t5.161-.121l-.3,1.2a11.228,11.228,0,0,0-3.18.45,3.225,3.225,0,0,0-1.77,1.44,13.582,13.582,0,0,0-1.229,3.27L15.72,58.64a12.021,12.021,0,0,0-.481,3.24,1.5,1.5,0,0,0,1.021,1.44,11.079,11.079,0,0,0,3,.48L19.02,65Q17.1,64.88,14.04,64.85Z" transform="translate(3.472 -16.533)" stroke="rgba(0,0,0,0)" stroke-miterlimit="10" stroke-width="1"/>
</svg>
