<svg xmlns="http://www.w3.org/2000/svg" xmlns:xlink="http://www.w3.org/1999/xlink" width="275.921" height="307.178" viewBox="0 0 275.921 307.178">
  <defs>
    <filter id="Ellipse_2" x="0" y="0" width="275.921" height="307.178" filterUnits="userSpaceOnUse">
      <feOffset dy="10" input="SourceAlpha"/>
      <feGaussianBlur result="blur"/>
      <feFlood flood-color="#fff"/>
      <feComposite operator="in" in2="blur"/>
      <feComposite in="SourceGraphic"/>
    </filter>
  </defs>
  <g id="Logo_Mark" data-name="Logo Mark" transform="translate(0.692 0.691)">
    <g transform="matrix(1, 0, 0, 1, -0.69, -0.69)" filter="url(#Ellipse_2)">
      <ellipse id="Ellipse_2-2" data-name="Ellipse 2" cx="85" cy="121.148" rx="85" ry="121.148" transform="translate(0.69 93.28) rotate(-33)" stroke="#fff" stroke-width="1"/>
    </g>
    <path id="Path_1" data-name="Path 1" d="M106.93,80.263q6.76,0,10.4,2.86,3.77,2.73,3.77,8.32t-3.77,8.45q-3.641,2.731-10.4,2.73T96.4,99.893q-3.64-2.86-3.64-8.45t3.64-8.32Q100.17,80.263,106.93,80.263Zm12.48,32.76v56.81q0,5.46,1.56,7.41,1.69,1.95,5.72,1.95v2.73q-2.6-.131-7.8-.26-5.2-.261-10.66-.26t-11.05.26q-5.59.129-8.45.26v-2.73q4.03,0,5.59-1.95,1.69-1.95,1.69-7.41v-41.21q0-5.85-1.56-8.58-1.56-2.86-5.72-2.86v-2.73q4.16.39,8.06.39,6.5,0,12.09-.39Q114.6,113.933,119.41,113.023Zm50.915,25.61q4.68,0,7.28,2.08a10.228,10.228,0,0,1,3.64,5.07,18.081,18.081,0,0,1,1.04,5.98,12.922,12.922,0,0,1-3.38,9.36,11.356,11.356,0,0,1-8.58,3.38q-5.72,0-8.71-2.6a8.715,8.715,0,0,1-2.86-6.76,13.336,13.336,0,0,1,1.82-7.28,18.144,18.144,0,0,1,4.81-4.81,9.177,9.177,0,0,0-4.16.91,12.03,12.03,0,0,0-2.99,1.82,12.4,12.4,0,0,0-2.47,2.73,12.832,12.832,0,0,0-1.69,3.25,13.679,13.679,0,0,0-.52,3.77v39q0,6.24,2.6,8.45t8.58,2.21v2.73q-2.989-.131-8.97-.26-5.85-.261-12.09-.26-5.85,0-11.83.26-5.979.129-8.97.26v-2.73q4.03,0,5.59-1.95,1.69-1.95,1.69-7.41v-41.21q0-5.85-1.56-8.58-1.56-2.86-5.72-2.86v-2.73q4.161.39,8.06.39,6.5,0,12.09-.39,5.721-.521,10.53-1.43v9.36a16.877,16.877,0,0,1,4.16-5.46,15.777,15.777,0,0,1,5.59-3.25A22.9,22.9,0,0,1,170.325,138.633Zm12.7,119.73a72.178,72.178,0,0,1-15.34-1.43,25,25,0,0,1-9.88-3.9,7.284,7.284,0,0,1-3.51-6.11q0-3.641,3.64-6.89,3.639-3.12,11.57-4.94l1.3,2.08a17.013,17.013,0,0,0-2.86,4.42,13.081,13.081,0,0,0-.65,3.9,8.616,8.616,0,0,0,4.55,7.8q4.68,2.859,13,2.86a24.6,24.6,0,0,0,9.75-1.69,12.367,12.367,0,0,0,5.98-4.42,10.779,10.779,0,0,0,2.08-6.5,8.312,8.312,0,0,0-2.73-6.24q-2.73-2.6-11.05-2.6h-7.02a27.9,27.9,0,0,1-10.01-1.56,13.615,13.615,0,0,1-6.11-4.29,10.974,10.974,0,0,1-2.08-6.63,13.051,13.051,0,0,1,4.81-10.27,47.491,47.491,0,0,1,12.35-7.41l1.17,1.04a27.6,27.6,0,0,0-2.73,2.21,4.833,4.833,0,0,0-1.43,3.77q0,4.159,4.68,4.16h12.61a52.728,52.728,0,0,1,14.69,1.82,19.527,19.527,0,0,1,9.88,5.98q3.639,4.029,3.64,10.66a18.935,18.935,0,0,1-4.29,11.96q-4.161,5.589-13,8.84Q197.19,258.362,183.021,258.363Zm1.82-52.13a43.881,43.881,0,0,1-14.43-2.21,21.484,21.484,0,0,1-9.88-6.76,18.693,18.693,0,0,1-3.64-11.83q0-7.15,3.64-11.7a21.064,21.064,0,0,1,9.88-6.89,43.855,43.855,0,0,1,14.43-2.21,42.706,42.706,0,0,1,14.3,2.21,21.037,21.037,0,0,1,10.01,6.89q3.639,4.55,3.64,11.7a18.7,18.7,0,0,1-3.64,11.83,21.455,21.455,0,0,1-10.01,6.76A42.731,42.731,0,0,1,184.841,206.233Zm0-2.34q2.469,0,3.9-4.03t1.43-14.43q0-10.4-1.43-14.43t-3.9-4.03q-2.471,0-3.9,4.03t-1.43,14.43q0,10.4,1.43,14.43T184.841,203.893Zm21.19-27.82-2.73-.91a19.22,19.22,0,0,1,6.37-8.71,15.5,15.5,0,0,1,9.62-3.38q4.55,0,6.76,2.47a8.828,8.828,0,0,1,2.21,6.11,7.913,7.913,0,0,1-2.08,5.85,6.335,6.335,0,0,1-4.81,2.08,6.637,6.637,0,0,1-6.76-6.76q-.261-3.381,2.47-8.58l.52.91a20.733,20.733,0,0,0-7.15,4.16A19.877,19.877,0,0,0,206.031,176.073Z" transform="translate(-20 -20)" fill="#fff"/>
  </g>
</svg>
